<svg width="180" height="32" viewBox="0 0 180 32" fill="none" xmlns="http://www.w3.org/2000/svg">
<g clip-path="url(#clip0_18693_55345)">
<path d="M53.6756 7.22607L57.448 17.5488L61.1989 7.22607H65.1705V21.4589H62.1357V17.5658L62.4368 10.8506L58.476 21.4569H56.3975L52.4465 10.8607L52.7457 17.5658V21.4569H49.7246V7.22607H53.6756Z" fill="white"/>
<path d="M79.8226 15.2887H74.0864V19.1026H80.8192V21.4589H71.0938V7.22607H80.7966V9.60038H74.0864V12.9945H79.8226V15.2887Z" fill="white"/>
<path d="M97.3888 9.59938H92.863V21.4589H89.8311V9.59938H85.374V7.22607H97.3888V9.59938Z" fill="white"/>
<path d="M104.975 16.1292H108.63L106.792 10.8126L104.975 16.1292ZM109.444 18.5005H104.156L103.151 21.4278H99.9512L105.39 7.2251H108.181L113.655 21.4298H110.451L109.444 18.5005Z" fill="white"/>
<path d="M129.468 16.7073C129.359 18.2354 128.803 19.4375 127.801 20.3138C126.798 21.1901 125.476 21.6289 123.836 21.6302C122.041 21.6302 120.628 21.0171 119.598 19.7909C118.568 18.5646 118.056 16.8829 118.061 14.7457V13.8761C118.036 12.6351 118.279 11.4036 118.773 10.2696C119.204 9.28122 119.914 8.44722 120.813 7.87526C121.737 7.31163 122.797 7.02552 123.873 7.04976C125.488 7.04976 126.789 7.48856 127.778 8.36615C128.767 9.24374 129.337 10.4763 129.489 12.0638H126.605C126.534 11.1388 126.282 10.471 125.85 10.0602C125.417 9.64947 124.758 9.4431 123.873 9.4411C122.912 9.4411 122.192 9.7904 121.715 10.489C121.238 11.1876 120.991 12.2719 120.974 13.7419V14.8138C120.974 16.35 121.202 17.4717 121.66 18.1789C122.118 18.8862 122.841 19.2402 123.831 19.2409C124.72 19.2409 125.385 19.0345 125.826 18.6217C126.267 18.209 126.522 17.5702 126.593 16.7053L129.468 16.7073Z" fill="white"/>
<path d="M138.901 16.1481H142.564L140.723 10.8195L138.901 16.1481ZM143.379 18.5234H138.082L137.077 21.4567H133.868L139.319 7.23096H142.116L147.598 21.4638H144.395L143.379 18.5234Z" fill="white"/>
<path d="M155.486 13.8671H157.878C158.623 13.8671 159.2 13.6788 159.61 13.3021C159.817 13.1034 159.979 12.8619 160.086 12.5938C160.191 12.3272 160.238 12.0403 160.222 11.7533C160.222 11.0854 160.031 10.5578 159.65 10.1704C159.268 9.78307 158.676 9.59105 157.874 9.59439H155.486V13.8671ZM157.849 16.2414H155.486V21.4509H152.517V7.2251H157.868C159.568 7.2251 160.881 7.60178 161.806 8.35515C162.73 9.10851 163.192 10.1674 163.191 11.5319C163.191 12.5023 162.977 13.3111 162.551 13.9583C162.068 14.6554 161.396 15.1936 160.619 15.5071L163.735 21.3176V21.4549H160.548L157.849 16.2414Z" fill="white"/>
<path d="M172.012 9.60033V19.1036H173.436C174.589 19.1036 175.47 18.7265 176.078 17.9725C176.686 17.2185 176.997 16.1499 177.013 14.7667V14.0123C177.013 12.565 176.711 11.4684 176.108 10.7224C175.505 9.97634 174.622 9.60334 173.46 9.60334L172.012 9.60033ZM169.063 21.4588V7.22603H173.465C174.642 7.20641 175.805 7.49802 176.84 8.07256C177.825 8.62902 178.633 9.4638 179.166 10.4769C179.733 11.5672 180.019 12.7869 179.998 14.0213V14.6755C180.023 15.9025 179.744 17.116 179.186 18.2029C178.658 19.2133 177.854 20.0456 176.872 20.5993C175.839 21.1746 174.678 21.4705 173.501 21.4588H169.063Z" fill="white"/>
<path d="M22.3797 9.14257L26.8555 13.7139L17.904 22.8564L8.9515 13.7139L13.4272 9.14257L17.904 13.7139L22.3797 9.14257ZM22.3797 0L17.904 4.57129L13.4272 0L0 13.7139L17.904 32L35.807 13.7139L22.3797 0Z" fill="white"/>
</g>
<defs>
<clipPath id="clip0_18693_55345">
<rect width="180" height="32" fill="white"/>
</clipPath>
</defs>
</svg>
