<svg width="109" height="84" viewBox="0 0 109 84" fill="none" xmlns="http://www.w3.org/2000/svg">
<g clip-path="url(#clip0_18693_55367)">
<path d="M9.60055 71.8491L6.46211 80.3035L3.30594 71.8491H0V83.5038H2.5279V80.3167L2.27809 74.8254L5.58346 83.5038H7.32303L10.6364 74.8179L10.3843 80.3167V83.5049H12.9242V71.8491H9.60055Z" fill="white"/>
<path d="M17.8828 71.8491V83.5049H26.0199V81.575H20.3867V78.4525H25.1858V76.5729H20.3867V73.7944H26.0005V71.8491H17.8828Z" fill="white"/>
<path d="M29.8281 71.8491V73.7933H33.5571V83.5049H36.0941V73.7933H39.8797V71.8491H29.8281Z" fill="white"/>
<path d="M47.7452 74.7871L49.283 79.1417H46.2252L47.7452 74.7871ZM46.5739 71.8491L42.0234 83.4798H44.7011L45.542 81.083H49.9662L50.8105 83.4832H53.491L48.9086 71.8491H46.5739Z" fill="white"/>
<path d="M66.7162 79.6121C66.6255 80.8629 66.1599 81.8479 65.3196 82.5672C64.4792 83.2865 63.374 83.646 62.0039 83.6456C60.5016 83.6456 59.3201 83.1435 58.4596 82.1392C57.599 81.1349 57.1703 79.7577 57.1733 78.0074V77.296C57.1524 76.2795 57.3558 75.2709 57.769 74.342C58.1292 73.5326 58.7238 72.8496 59.476 72.3813C60.2487 71.9198 61.136 71.6856 62.0359 71.7058C63.3866 71.7058 64.4758 72.0651 65.3036 72.7836C66.1313 73.5021 66.6077 74.5117 66.7327 75.8124H64.3203C64.2612 75.0562 64.0516 74.5091 63.6915 74.1711C63.3313 73.8332 62.7801 73.6642 62.0376 73.6642C61.2339 73.6642 60.6319 73.95 60.2318 74.5214C59.8316 75.0929 59.6246 75.981 59.6109 77.1857V78.0635C59.6109 79.3207 59.8015 80.2391 60.1826 80.8185C60.5637 81.398 61.1689 81.6881 61.9982 81.6889C62.7433 81.6889 63.2997 81.5199 63.6675 81.182C64.0352 80.8441 64.2494 80.321 64.31 79.6127L66.7162 79.6121Z" fill="white"/>
<path d="M76.1372 74.7928L77.6807 79.156H74.616L76.1372 74.7928ZM74.967 71.8491L70.4062 83.5038H73.0931L73.934 81.1036H78.3621L79.2122 83.5072H81.899L77.312 71.8491H74.967Z" fill="white"/>
<path d="M88.4917 77.2907H90.4925C91.116 77.2907 91.5993 77.1364 91.9423 76.8278C92.116 76.6654 92.2525 76.4673 92.3424 76.2472C92.43 76.0296 92.469 75.7956 92.4568 75.5614C92.4568 75.012 92.2971 74.58 91.9777 74.2653C91.6583 73.9506 91.1629 73.7933 90.4914 73.7933H88.4934L88.4917 77.2907ZM90.4691 79.2337H88.4917V83.4986H86.0078V71.8491H90.4851C91.9093 71.8491 93.0075 72.1577 93.7796 72.7749C94.5517 73.3921 94.938 74.2592 94.9384 75.3763C94.9384 76.1718 94.7602 76.8343 94.4039 77.3639C93.9991 77.9343 93.4372 78.3748 92.7866 78.632L95.3934 83.3923V83.5066H92.7266L90.4691 79.2337Z" fill="white"/>
<path d="M102.318 73.7925V81.5759H103.511C104.475 81.5759 105.211 81.267 105.721 80.649C106.23 80.0311 106.491 79.1561 106.502 78.0242V77.407C106.502 76.2214 106.25 75.3234 105.746 74.7131C105.242 74.1028 104.502 73.797 103.527 73.7959L102.318 73.7925ZM99.8516 83.5041V71.846H103.534C104.52 71.8296 105.493 72.0684 106.358 72.5392C107.182 72.9948 107.857 73.6784 108.302 74.5079C108.777 75.4006 109.017 76.3994 109 77.4105V77.9459C109.021 78.9507 108.787 79.9445 108.32 80.8347C107.878 81.6623 107.206 82.344 106.384 82.7972C105.519 83.2685 104.548 83.5109 103.563 83.5012L99.8516 83.5041Z" fill="white"/>
<path d="M62.3717 16.674L70.2436 24.5409L54.5033 40.2764L38.762 24.5409L46.6332 16.674L54.5033 24.5409L62.3717 16.674ZM62.3717 0.938965L54.5033 8.80646L46.6332 0.938965L23.0234 24.5409L54.5033 56.0114L85.9815 24.5409L62.3717 0.938965Z" fill="white"/>
</g>
<defs>
<clipPath id="clip0_18693_55367">
<rect width="109" height="82.7061" fill="white" transform="translate(0 0.938965)"/>
</clipPath>
</defs>
</svg>
